PathFileType	4	(x/y/z)	S06_P20_T34
DataRate	CameraRate	NumFrames	NumMarkers	Units	OrigDataRate	OrigDataStartFrame	OrigNumFrames
240	240	5	51	mm	240	133	354
Frame#	Time	Sternum			R.Acromium			L.Acromium			Top.Head			R.ASIS			L.ASIS			R.PSIS			L.PSIS			R.Great.Tro			L.Great.Tro			R.Iliac.Crest			L.Iliac.Crest			V.Sacral			R.Thigh.Upper.Post			R.Thigh.Lower.Ant			R.Thigh.Lower.Post			R.Thigh.Upper.Ant			R.Knee.Lat			R.Knee.Med			R.Shank.Upper.Post			R.Shank.Lower.Ant			R.Shank.Lower.Post			R.Shank.Upper.Ant			R.Ankle.Lat			R.Ankle.Med			R.Heel.Upper			R.Heel.Med			R.Heel.Lat			R.Toe.Lat			R.Toe.Med			R.Toe.Tip			L.Thigh.Upper.Post			L.Thigh.Lower.Ant			L.Thigh.Lower.Post			L.Thigh.Upper.Ant			L.Knee.Lat			L.Knee.Med			L.Shank.Upper.Post			L.Shank.Lower.Ant			L.Shank.Lower.Post			L.Shank.Upper.Ant			L.Ankle.Lat			L.Ankle.Med			L.Heel.Upper			L.Heel.Med			L.Heel.Lat			L.Toe.Lat			L.Toe.Med			L.Toe.Tip			Cervical.Spine			Back			
		X1	Y1	Z1	X2	Y2	Z2	X3	Y3	Z3	X4	Y4	Z4	X5	Y5	Z5	X6	Y6	Z6	X7	Y7	Z7	X8	Y8	Z8	X9	Y9	Z9	X10	Y10	Z10	X11	Y11	Z11	X12	Y12	Z12	X13	Y13	Z13	X14	Y14	Z14	X15	Y15	Z15	X16	Y16	Z16	X17	Y17	Z17	X18	Y18	Z18	X19	Y19	Z19	X20	Y20	Z20	X21	Y21	Z21	X22	Y22	Z22	X23	Y23	Z23	X24	Y24	Z24	X25	Y25	Z25	X26	Y26	Z26	X27	Y27	Z27	X28	Y28	Z28	X29	Y29	Z29	X30	Y30	Z30	X31	Y31	Z31	X32	Y32	Z32	X33	Y33	Z33	X34	Y34	Z34	X35	Y35	Z35	X36	Y36	Z36	X37	Y37	Z37	X38	Y38	Z38	X39	Y39	Z39	X40	Y40	Z40	X41	Y41	Z41	X42	Y42	Z42	X43	Y43	Z43	X44	Y44	Z44	X45	Y45	Z45	X46	Y46	Z46	X47	Y47	Z47	X48	Y48	Z48	X49	Y49	Z49	X50	Y50	Z50	X51	Y51	Z51	

133	0.55	-597.89	1273.9	341.88	-717.64	1483.4	512.35	-727.82	1484.5	159.85	-690.73	1801.4	332.5	-658.75	1042	468.84	-656.63	1030.2	216.66	NaN	NaN	NaN	-857.59	1068	296.09	-713.74	973.26	519.89	-758.43	967.94	161.88	-742.91	1119.5	499.27	-722.8	1107.8	179.96	-873.57	1032.7	339.76	-649.7	729.71	501.64	-574.2	668.41	463.56	-638.89	643.24	477.42	-580.78	756.53	482.73	-587.33	543.48	459.33	-592.42	551.57	332.45	-610.62	313.71	454.11	-546.86	255	428.39	-610.14	237.19	437.33	-549.21	330.24	443.51	-566.52	107.01	408.02	-552.53	117.32	319.79	-629.14	69.385	356.14	-618.46	39.759	325.19	-618.55	37.002	389.7	-441.09	44.5	425.71	-420.47	64.219	308.9	-354.46	84.963	352.78	-702.15	701.78	162.94	-648.33	617.7	210.19	-718.93	613.03	174.68	-636.65	711.34	194.49	-751.09	521.25	189.69	-707.8	513.36	305.39	-925.97	382.05	204.52	-921.82	293.32	208.72	-978.96	334.28	223.7	-871.97	343.92	195.3	-1043.3	199.64	227.79	-1032.9	204.79	317.68	-1121.9	229.71	271	-1136.9	212.93	306.65	-1136.8	204.85	245.12	-1020.8	69.572	221.95	-1004.5	73.447	339.65	-944.87	37.736	292.95	-779.9	1536.4	337.24	-843.03	1266.8	336.11
134	0.55417	-592.48	1274	341.97	-711.86	1483.6	512.71	-722.63	1484.7	160.22	-685.19	1801.5	332.79	-653.22	1042.4	469.06	-651.3	1030.4	216.82	NaN	NaN	NaN	-852.22	1068	296.43	-708.18	973.76	520.21	-752.79	967.78	162.19	-737.29	1119.8	499.54	-717.63	1107.9	180.18	-868.01	1032.8	340.22	-644.44	730.02	502.12	-569.18	668.61	464.06	-633.89	643.5	478.08	-575.57	756.77	483.03	-582.85	543.42	459.75	-588.24	551.49	332.94	-607.89	313.76	454.54	-544.66	254.6	428.55	-608.05	237.26	437.68	-546.37	329.83	443.75	-565.76	106.87	408.09	-551.8	117.15	319.85	-628.76	69.653	356.24	-618.25	39.976	325.24	-618.37	37.16	389.75	-440.76	43.549	425.69	-420.03	63.03	308.78	-353.76	83.14	352.63	-692.75	701.87	162.29	-638.01	618.39	209.54	-708.45	612.89	173.82	-627.51	712.18	194.15	-739.47	521	188.63	-696.28	513.13	304.58	-915.35	384.27	202.91	-912.34	295.49	207.63	-969.09	337.31	222.01	-861.84	345.38	194.34	-1035.1	203.92	226.24	-1025.4	209.03	316.21	-1113.1	236.4	268.95	-1128.9	220.04	304.47	-1128.6	211.91	243	-1016	72.985	220.82	-1000.3	76.543	338.39	-941.44	38.068	292.17	-774.45	1536.6	337.7	-837.64	1267	336.6
135	0.55833	-587.09	1274.2	342.03	-706.07	1483.8	513.06	-717.46	1484.8	160.57	-679.66	1801.6	333.08	-647.73	1042.8	469.26	-646	1030.6	216.94	NaN	NaN	NaN	-846.89	1068	296.76	-702.65	974.29	520.52	-747.18	967.62	162.48	-731.71	1120.1	499.78	-712.51	1108	180.37	-862.49	1032.9	340.68	-639.36	730.34	502.62	-564.28	668.78	464.55	-629.01	643.78	478.73	-570.47	756.98	483.36	-578.51	543.36	460.18	-584.08	551.44	333.44	-605.28	313.82	454.94	-542.56	254.22	428.73	-606.07	237.35	437.99	-543.65	329.43	444	-565.06	106.76	408.14	-551.13	117.02	319.91	-628.42	69.893	356.33	-618.06	40.175	325.29	-618.21	37.303	389.8	-440.46	42.705	425.69	-419.64	61.964	308.67	-353.14	81.482	352.48	-683.33	702.04	161.69	-627.69	619.19	209	-697.93	612.84	173.04	-618.38	713.12	193.89	-727.76	520.87	187.65	-684.75	513.06	303.89	-904.56	386.51	201.33	-902.63	297.71	206.61	-959.02	340.33	220.33	-851.53	346.89	193.44	-1026.8	208.22	224.71	-1017.6	213.26	314.76	-1104.1	242.91	266.9	-1120.6	226.91	302.27	-1120	218.79	240.86	-1010.7	76.564	219.6	-995.55	79.731	337.05	-937.5	38.591	291.29	-769	1536.7	338.15	-832.27	1267.2	337.08
136	0.5625	-581.74	1274.4	342.06	-700.28	1483.9	513.39	-712.32	1485	160.9	-674.12	1801.7	333.37	-642.29	1043.2	469.44	-640.73	1030.8	217.03	NaN	NaN	NaN	-841.59	1068	297.08	-697.15	974.85	520.83	-741.6	967.45	162.77	-726.15	1120.4	500.01	-707.42	1108	180.54	-857.03	1033	341.13	-634.47	730.67	503.13	-559.51	668.93	465.05	-624.27	644.05	479.38	-565.47	757.17	483.73	-574.31	543.31	460.62	-579.92	551.42	333.94	-602.8	313.91	455.3	-540.58	253.87	428.92	-604.22	237.46	438.26	-541.06	329.06	444.27	-564.44	106.66	408.18	-550.52	116.92	319.97	-628.13	70.106	356.41	-617.89	40.356	325.33	-618.06	37.433	389.83	-440.19	41.966	425.69	-419.29	61.018	308.57	-352.58	79.985	352.35	-673.89	702.29	161.16	-617.37	620.11	208.58	-687.39	612.9	172.34	-609.26	714.16	193.73	-715.99	520.85	186.76	-673.25	513.15	303.32	-893.62	388.76	199.78	-892.71	299.96	205.65	-948.78	343.35	218.68	-841.05	348.45	192.61	-1018.1	212.5	223.21	-1009.7	217.45	313.34	-1094.9	249.2	264.88	-1112.1	233.49	300.06	-1111.2	225.45	238.72	-1004.8	80.277	218.3	-990.34	82.98	335.65	-932.98	39.328	290.31	-763.56	1536.9	338.59	-826.93	1267.4	337.56
137	0.56667	-576.4	1274.5	342.06	-694.49	1484.1	513.7	-707.21	1485.2	161.21	-668.6	1801.9	333.65	-636.9	1043.7	469.61	-635.49	1031	217.09	NaN	NaN	NaN	-836.33	1068	297.39	-691.68	975.43	521.13	-736.05	967.28	163.04	-720.63	1120.8	500.21	-702.36	1108.1	180.68	-851.62	1033.2	341.56	-629.77	731.01	503.64	-554.87	669.04	465.54	-619.66	644.32	480.01	-560.6	757.33	484.14	-570.23	543.26	461.06	-575.8	551.43	334.45	-600.46	314.01	455.61	-538.71	253.53	429.12	-602.48	237.6	438.49	-538.59	328.7	444.55	-563.89	106.59	408.2	-549.96	116.86	320.02	-627.86	70.292	356.47	-617.73	40.516	325.37	-617.92	37.55	389.87	-439.96	41.324	425.7	-418.98	60.183	308.47	-352.09	78.642	352.24	-664.45	702.65	160.7	-607.08	621.16	208.26	-676.85	613.07	171.73	-600.18	715.3	193.67	-704.18	520.96	185.96	-661.8	513.41	302.89	-882.55	391.01	198.28	-882.6	302.24	204.75	-938.39	346.35	217.06	-830.42	350.07	191.86	-1009.2	216.74	221.74	-1001.5	221.58	311.94	-1085.5	255.21	262.91	-1103.4	239.74	297.88	-1102.1	231.84	236.6	-998.29	84.088	216.92	-984.6	86.264	334.19	-927.85	40.297	289.25	-758.11	1537.2	339.03	-821.6	1267.7	338.02
